
<svg id="Location" viewBox="0 0 24 24" width="16" height="21" xmlns="http://www.w3.org/2000/svg">
    <circle cx="9.011" cy="9.005" r="3.002" fill="#FFF"></circle>
    <path d="M10.002 24H8.001v-3.262l-5.368-5.369c-3.51-3.511-3.51-9.225 0-12.736 3.511-3.509 9.224-3.512 12.736 0 3.51 3.511 3.51 9.225 0 12.736l-5.365 5.369V24h-.002zM9 2a6.983 6.983 0 0 0-4.953 2.047c-2.73 2.732-2.73 7.176 0 9.906l4.955 4.955 4.951-4.955c2.73-2.731 2.73-7.176 0-9.906A6.983 6.983 0 0 0 9 2z" fill="#FFF"></path>
</svg>